<svg
    xmlns="http://www.w3.org/2000/svg"
    width="48"
    height="48"
    viewBox="0 0 48 48"
    fill="none"
>
  <circle cx="24" cy="24" r="24" fill="#25D366"/>
  <path
    d="M24 12C17.373 12 12 17.373 12 24C12 25.947 12.502 27.784 13.395 29.384L12 36L18.72 34.625C20.259 35.47 22.076 36 24 36C30.627 36 36 30.627 36 24C36 17.373 30.627 12 24 12ZM24 33.6C22.369 33.6 20.798 33.162 19.422 32.327L18.966 32.043L15.348 32.796L16.106 29.228L15.79 28.734C14.964 27.41 14.529 25.756 14.529 24C14.529 18.62 18.62 14.529 24 14.529C29.38 14.529 33.471 18.62 33.471 24C33.471 29.38 29.38 33.6 24 33.6Z"
    fill="white"
  />
  <path
    d="M20.08 18.98C19.913 18.611 19.73 18.606 19.536 18.598C19.344 18.59 19.12 18.59 18.895 18.59C18.67 18.59 18.344 18.67 18.089 18.925C17.835 19.181 17 19.942 17 21.42C17 22.898 18.22 24.323 18.394 24.548C18.567 24.772 20.524 27.677 23.559 28.833C24.001 29.006 24.34 29.104 24.592 29.174C25.078 29.309 25.503 29.277 25.84 29.228C26.217 29.174 27.34 28.555 27.521 28.071C27.701 27.587 27.701 27.166 27.65 27.072C27.599 26.977 27.469 26.924 27.279 26.839C27.09 26.754 25.621 26.037 25.395 25.947C25.169 25.858 25.021 25.822 24.874 26.031C24.726 26.24 24.238 26.839 24.115 26.986C23.992 27.133 23.869 27.154 23.679 27.069C23.49 26.984 22.815 26.759 21.998 26.061C21.321 25.46 20.857 24.666 20.733 24.456C20.609 24.247 20.746 24.141 20.825 24.056C20.897 23.981 20.989 23.857 21.074 23.763C21.158 23.669 21.179 23.6 21.237 23.496C21.296 23.391 21.267 23.287 21.223 23.202C21.179 23.117 20.596 21.677 20.372 21.167C20.156 20.675 20.309 20.533 20.433 20.414C20.544 20.307 20.681 20.126 20.766 20.007C20.851 19.888 20.878 19.788 20.927 19.694C20.975 19.601 20.939 19.423 20.854 19.318C20.777 19.222 20.245 18.998 20.08 18.98Z"
    fill="white"
  />
</svg>
